<?xml version="1.0" standalone="no"?>
<!DOCTYPE svg PUBLIC "-//W3C//DTD SVG 20010904//EN"
 "http://www.w3.org/TR/2001/REC-SVG-20010904/DTD/svg10.dtd">
<svg version="1.0" xmlns="http://www.w3.org/2000/svg"
 width="805.000000pt" height="412.000000pt" viewBox="0 0 805.000000 412.000000"
 preserveAspectRatio="xMidYMid meet">
<metadata>
Created by potrace 1.16, written by Peter Selinger 2001-2019
</metadata>
<g transform="translate(0.000000,412.000000) scale(0.100000,-0.100000)"
fill="#000000" stroke="none">
<path d="M4245 4029 c-387 -53 -722 -265 -933 -591 l-56 -88 -77 0 c-98 0
-241 -36 -340 -85 -150 -76 -262 -174 -354 -313 -35 -53 -53 -71 -64 -67 -158
62 -307 89 -491 88 -277 -1 -506 -73 -742 -235 -101 -69 -262 -232 -329 -333
-99 -149 -171 -325 -204 -496 -8 -45 -16 -83 -18 -84 -1 -1 -27 -13 -58 -27
-239 -108 -420 -326 -490 -589 -31 -117 -31 -318 0 -434 74 -279 281 -511 545
-610 156 -59 -55 -55 3174 -55 3284 0 3051 -5 3259 65 192 64 344 157 494 302
264 256 399 574 399 944 0 261 -70 492 -215 714 -242 369 -643 585 -1085 586
-186 0 -333 -26 -486 -88 l-65 -26 -37 44 c-83 99 -190 184 -297 235 l-69 34
-14 67 c-105 518 -513 924 -1032 1028 -95 19 -323 27 -415 14z m394 -125 c105
-21 209 -57 306 -106 145 -72 167 -9 -170 -507 -162 -239 -293 -437 -291 -440
2 -3 -16 -6 -40 -6 -24 0 -44 0 -44 0 -5 9 -208 1060 -206 1062 1 2 36 7 77
12 94 12 271 5 368 -15z m-370 -521 c56 -285 101 -524 101 -530 0 -7 4 -13 9
-13 5 0 -4 -13 -20 -29 -16 -16 -32 -43 -35 -60 -4 -17 -8 -31 -10 -31 -3 0
-203 -43 -445 -95 -242 -52 -448 -95 -457 -95 -15 0 -82 69 -82 84 0 8 789
1247 808 1269 8 9 18 17 22 17 4 0 53 -233 109 -517z m-177 479 c-9 -16 -192
-304 -407 -640 -326 -512 -394 -612 -412 -612 -29 0 -29 -18 2 324 14 153 25
284 25 292 0 8 7 14 15 14 8 0 28 26 44 58 108 212 334 425 556 523 38 16 174
65 192 69 2 0 -5 -13 -15 -28z m1060 -194 c138 -108 256 -258 339 -432 46 -97
99 -268 99 -321 0 -28 47 -20 -550 -95 -357 -45 -476 -57 -479 -47 -2 6 -17
25 -33 40 l-28 28 293 434 c160 239 295 434 299 435 3 0 30 -19 60 -42z
m-1878 -475 c-3 -27 -15 -168 -28 -315 l-24 -267 -35 -31 c-20 -17 -39 -44
-42 -60 l-7 -30 -283 0 -284 0 -17 36 c-13 27 -30 42 -63 57 -25 11 -47 21
-49 22 -1 1 4 31 11 66 10 48 17 63 29 61 10 -1 22 15 36 49 35 83 108 183
188 258 131 122 320 199 491 200 l82 1 -5 -47z m-1039 -366 c132 -37 205 -67
205 -85 0 -8 -5 -44 -12 -79 -10 -54 -16 -67 -39 -79 -15 -7 -36 -24 -46 -38
l-19 -23 -331 151 c-183 83 -329 154 -325 158 17 17 142 26 302 23 150 -2 188
-7 265 -28z m3365 19 c0 -8 4 -16 10 -18 5 -1 -26 -111 -70 -243 -44 -132 -80
-243 -80 -247 0 -5 4 -8 9 -8 5 0 46 110 91 245 93 280 74 260 190 198 36 -19
94 -59 130 -88 65 -54 145 -146 145 -167 0 -6 -79 -61 -175 -122 -108 -69
-168 -112 -157 -114 10 -2 93 44 185 102 145 92 169 104 179 90 8 -12 16 -13
30 -6 16 9 24 1 61 -59 24 -38 50 -69 57 -69 10 0 0 24 -30 73 -52 85 -55 81
71 126 131 47 264 71 402 71 165 0 392 -42 392 -73 0 -7 -57 -224 -127 -483
l-128 -471 -39 -12 c-21 -6 -41 -10 -43 -7 -3 3 -34 51 -69 108 -42 68 -64 95
-64 80 0 -12 25 -62 55 -111 64 -104 68 -112 56 -129 -7 -11 -18 -9 -60 12
-36 19 -51 23 -51 13 0 -8 22 -24 48 -36 68 -32 66 -72 -3 -85 -32 -6 -53 -22
-43 -32 3 -2 26 2 52 10 l48 15 30 -35 c17 -19 36 -34 44 -34 22 0 31 -29 84
-292 l50 -247 -25 -37 c-14 -20 -25 -43 -25 -50 0 -11 -5 -12 -17 -4 -25 13
-233 53 -241 45 -12 -12 17 -21 138 -44 105 -20 120 -26 120 -43 0 -11 8 -33
17 -48 16 -29 16 -31 -51 -187 -38 -87 -75 -170 -83 -186 l-14 -27 -621 2
-622 3 -82 340 c-45 187 -80 343 -77 347 2 5 10 8 17 8 7 0 25 12 40 27 l28
27 290 -57 c264 -53 314 -60 295 -41 -4 4 -134 32 -289 63 -260 52 -283 59
-286 78 -2 14 3 23 15 27 10 2 137 39 283 81 246 71 291 87 279 99 -2 3 -132
-32 -288 -77 -272 -78 -285 -81 -295 -62 -27 47 -54 65 -101 65 l-45 0 0 -120
c0 -114 1 -120 21 -120 11 0 18 -4 15 -9 -3 -5 30 -158 74 -340 44 -183 80
-334 80 -336 0 -3 -21 -5 -47 -5 -34 0 -176 45 -548 175 -452 157 -569 194
-540 166 6 -4 222 -82 480 -171 259 -90 472 -165 474 -166 2 -2 -389 -4 -870
-4 l-874 0 55 53 c30 29 108 103 174 165 77 72 112 112 100 112 -11 -1 -97
-75 -192 -165 l-174 -165 -129 0 c-120 0 -157 5 -571 86 -523 101 -488 93
-488 110 0 8 3 14 8 14 15 0 1278 181 1302 186 23 6 24 7 5 14 -15 5 -866
-111 -1277 -174 -32 -5 -38 -3 -44 16 -3 13 -14 31 -22 41 -9 10 -12 17 -6 15
15 -5 193 158 185 170 -3 5 -49 -28 -101 -74 -87 -78 -97 -84 -125 -77 -69 17
-145 -10 -160 -56 -5 -18 -14 -15 -106 30 -55 27 -111 49 -126 49 -17 0 15
-20 96 -60 95 -46 121 -64 121 -80 0 -12 -8 -22 -22 -25 -13 -3 -225 -46 -473
-95 -382 -76 -464 -90 -547 -90 -72 0 -98 3 -98 13 0 6 11 145 25 307 14 162
25 303 25 313 0 12 8 17 31 17 17 0 48 10 69 21 l38 21 187 -91 c103 -50 189
-91 191 -91 2 0 4 6 4 13 0 6 -85 53 -188 102 l-188 90 9 36 9 35 179 28 c119
19 179 32 179 40 0 9 -48 5 -182 -16 -184 -29 -198 -29 -198 7 0 6 86 66 190
135 104 69 190 131 190 138 0 6 -2 12 -6 12 -8 0 -363 -240 -377 -254 -9 -10
-18 -9 -44 7 -18 10 -33 26 -33 35 0 10 61 220 134 467 l134 450 31 -3 c79 -9
141 46 141 124 0 45 -30 99 -59 109 -12 3 -21 12 -21 19 0 7 42 120 94 252 90
230 95 239 127 252 33 12 43 8 374 -144 187 -86 346 -157 353 -157 8 0 11 -8
8 -21 -2 -12 1 -38 9 -59 13 -38 13 -39 -47 -143 -37 -64 -57 -109 -51 -115 5
-5 32 32 67 94 32 56 60 103 61 105 1 1 16 -5 34 -14 18 -9 47 -14 65 -12 20
2 33 -1 33 -7 0 -19 66 -110 71 -97 2 7 -11 35 -28 62 l-32 50 25 20 c14 11
31 36 37 55 l12 35 288 0 288 0 6 -25 c3 -13 16 -32 29 -41 l22 -17 -12 -186
c-25 -407 -24 -380 -8 -343 13 30 49 497 39 514 -2 3 5 4 16 1 62 -16 131 28
150 96 8 29 17 42 33 46 143 33 863 185 878 185 46 0 28 -32 -94 -167 -69 -76
-123 -142 -120 -147 6 -9 78 62 190 188 l61 69 46 -23 c53 -25 99 -22 137 9
18 15 26 16 34 7 23 -29 438 -287 455 -284 11 2 -70 59 -216 153 l-234 150 6
40 c3 22 9 43 13 47 7 8 911 125 979 127 30 1 42 -3 42 -13z m-4090 -73 c0 -5
-41 -111 -90 -237 -50 -126 -90 -231 -90 -233 0 -2 -12 -3 -26 -3 -35 0 -78
-26 -98 -60 l-16 -28 -117 44 c-65 24 -124 46 -131 49 -19 7 57 112 149 205
90 92 182 159 304 222 88 46 115 56 115 41z m5925 -1011 c296 -666 345 -782
332 -782 -2 0 -194 91 -428 203 l-424 203 3 52 c5 65 -23 115 -74 134 -23 8
-33 17 -30 28 3 8 55 200 116 425 153 567 139 520 155 504 8 -8 165 -353 350
-767z m-215 707 c483 -257 725 -807 593 -1349 -8 -36 -19 -69 -23 -73 -5 -6
-584 1274 -658 1455 -6 15 10 9 88 -33z m-6157 -235 c111 -41 127 -50 127 -69
0 -12 11 -39 25 -59 14 -20 25 -42 25 -48 0 -5 -62 -219 -137 -473 -136 -461
-137 -463 -165 -467 -17 -3 -28 0 -28 7 0 7 -41 146 -91 310 -49 164 -86 301
-82 304 5 3 15 48 21 99 7 52 26 137 43 190 36 112 104 252 122 252 6 0 69
-21 140 -46z m-353 -518 c0 -2 41 -137 90 -301 50 -164 90 -302 90 -307 0 -5
-10 -22 -22 -38 -13 -18 -22 -47 -24 -76 -1 -25 -4 -47 -6 -48 -52 -37 -561
-327 -565 -322 -3 3 83 236 192 518 236 610 223 578 235 578 6 0 10 -2 10 -4z
m-71 -58 c-12 -29 -102 -262 -201 -518 -99 -256 -182 -467 -184 -469 -16 -16
-61 128 -74 236 -19 155 19 338 97 473 71 120 219 257 336 310 23 11 43 20 44
20 2 0 -7 -24 -18 -52z m6693 -499 c328 -156 425 -206 415 -215 -6 -6 -156
-53 -332 -104 -176 -51 -325 -97 -331 -101 -7 -6 -16 0 -24 15 -19 36 -69 59
-116 55 l-41 -4 -52 254 c-28 140 -56 258 -62 262 -6 3 7 9 29 13 22 3 45 13
52 21 7 9 18 14 24 12 6 -3 203 -96 438 -208z m-6416 -324 c-3 -22 -15 -166
-27 -320 -12 -154 -24 -283 -28 -286 -10 -11 -142 21 -212 50 -126 53 -265
165 -334 269 -24 37 -26 45 -14 53 7 4 135 80 284 167 l269 159 34 -26 c30
-24 33 -30 28 -66z m6794 18 c-192 -342 -492 -555 -869 -618 -56 -10 -104 -16
-106 -13 -2 2 31 83 73 180 70 160 79 175 96 166 10 -6 39 -8 64 -5 61 7 102
48 109 110 l5 44 322 96 c176 52 325 95 329 96 5 1 -6 -25 -23 -56z m-5603
-539 c49 -21 99 -10 139 30 l32 32 373 -73 c206 -39 383 -74 394 -76 11 -2
-394 -4 -900 -5 l-920 0 405 82 405 82 18 -29 c9 -15 34 -35 54 -43z"/>
<path d="M3922 2230 c-98 -13 -242 -62 -327 -112 -82 -49 -186 -152 -234 -231
-86 -145 -115 -270 -109 -471 4 -126 8 -151 37 -235 85 -250 261 -412 522
-483 111 -30 329 -32 429 -4 132 36 251 109 318 193 l31 39 -121 90 c-67 49
-128 93 -136 97 -9 6 -27 -5 -58 -37 -67 -67 -139 -99 -239 -104 -102 -5 -170
13 -252 67 -191 128 -257 419 -148 649 39 82 116 167 183 201 146 74 317 63
438 -28 l52 -39 98 80 c55 44 110 89 124 100 l25 20 -55 51 c-135 126 -352
185 -578 157z"/>
<path d="M1600 1455 l0 -745 165 0 165 0 2 531 3 532 325 -532 325 -531 213 0
212 0 0 745 0 745 -160 0 -160 0 0 -522 c-1 -469 -2 -521 -16 -503 -8 11 -153
246 -322 522 l-307 503 -222 0 -223 0 0 -745z"/>
<path d="M4780 1455 l0 -745 160 0 160 0 0 289 0 288 203 6 c217 6 290 18 378
62 145 74 209 194 209 391 0 265 -130 404 -413 443 -43 6 -218 11 -388 11
l-309 0 0 -745z m577 465 c123 -16 186 -62 198 -144 9 -56 -8 -116 -42 -148
-52 -50 -95 -61 -260 -66 l-153 -5 0 187 0 186 93 0 c50 0 125 -5 164 -10z"/>
<path d="M5334 1745 c-7 -39 2 -58 16 -35 13 20 13 70 0 70 -5 0 -12 -16 -16
-35z"/>
<path d="M6100 1455 l0 -745 165 0 165 0 0 745 0 745 -165 0 -165 0 0 -745z"/>
<path d="M4561 1825 c-60 -22 -98 -45 -75 -45 24 0 148 48 152 58 5 16 -3 15
-77 -13z"/>
<path d="M3968 1628 c-152 -51 -238 -84 -238 -93 0 -9 78 13 256 72 171 57
252 88 243 94 -18 11 10 19 -261 -73z"/>
<path d="M3770 1250 c0 -5 4 -11 8 -14 21 -13 396 -66 405 -57 11 11 -1 13
-213 46 -91 14 -173 27 -182 29 -10 2 -18 0 -18 -4z"/>
<path d="M2070 1180 c-8 -5 -11 -12 -8 -16 10 -10 79 6 73 17 -8 12 -46 12
-65 -1z"/>
<path d="M4570 1115 c28 -16 70 -20 70 -6 0 10 -35 21 -70 21 l-25 -1 25 -14z"/>
</g>
</svg>
